<?xml version="1.0" encoding="UTF-8"?> <svg xmlns="http://www.w3.org/2000/svg" xmlns:xlink="http://www.w3.org/1999/xlink" version="1.1" id="Layer_1" x="0px" y="0px" viewBox="0 0 180 100" style="enable-background:new 0 0 180 100;" xml:space="preserve"> <style type="text/css"> .st0{fill:#1A1A1A;} .st1{fill:#0F0F0F;} </style> <path class="st0" d="M155.32,39.42c0-1.62,1.3-2.95,2.9-2.95c0.77,0,1.49,0.32,2.05,0.85c0.56,0.56,0.85,1.3,0.85,2.07 s-0.29,1.52-0.85,2.07c-0.56,0.56-1.28,0.88-2.05,0.88C156.63,42.34,155.32,41.04,155.32,39.42 M155.08,39.42 c0,1.75,1.41,3.19,3.16,3.19c0.85,0,1.62-0.32,2.21-0.93c0.58-0.61,0.93-1.41,0.93-2.26c0-0.85-0.32-1.65-0.93-2.26 c-0.61-0.61-1.38-0.93-2.21-0.93C156.49,36.23,155.08,37.67,155.08,39.42 M157.05,41.31h0.45v-1.49h1.01c0.16,0,0.29,0,0.4,0.05 c0.13,0.08,0.21,0.24,0.24,0.45l0.05,0.58c0,0.13,0,0.21,0,0.27c0.03,0.05,0.03,0.08,0.05,0.11h0.56V41.2 c-0.08-0.03-0.11-0.11-0.13-0.21c-0.03-0.05-0.03-0.16-0.03-0.29l-0.03-0.45c0-0.21-0.05-0.35-0.11-0.43 c-0.08-0.08-0.19-0.16-0.32-0.21c0.16-0.08,0.27-0.19,0.35-0.32c0.08-0.13,0.11-0.29,0.11-0.51c0-0.4-0.16-0.66-0.45-0.82 c-0.16-0.08-0.37-0.11-0.61-0.11h-1.52L157.05,41.31L157.05,41.31z M157.48,39.42v-1.2h1.06c0.16,0,0.29,0.03,0.37,0.08 c0.16,0.08,0.24,0.27,0.24,0.51c0,0.24-0.05,0.4-0.19,0.48c-0.11,0.08-0.27,0.13-0.48,0.13H157.48z M31.53,43.81L18.62,64.11h8.83 l12.44-19.4L31.53,43.81z M84.72,43.35v-7.52H59.6c-3.43,0.21-4.92,1.86-6.03,3.03c-1.2,1.25-1.86,3.88-1.86,3.88v-6.86H38.34 c-1.01,0-1.97,0.43-2.68,1.44c-0.74,0.98-3.8,6.03-3.8,6.03H84.72z M153.04,43.35v-7.52h-26.87c-3.4,0.21-4.92,1.86-6.03,3.03 c-1.2,1.25-1.86,3.88-1.86,3.88v0.61H153.04z M93.55,35.86h-7.52v7.5h7.52V35.86z M118.19,35.86h-7.5v7.5h7.5V35.86z M118.19,46.07 l-7.39-0.45v8.69c0,0-0.03,2.5-2.45,2.5H95.7c0,0-2.15-0.19-2.15-2.47v-9.89l-7.44-0.53v13.32c1.2,6.38,6.96,6.88,6.96,6.88 s0.58,0.03,0.69,0.05h17.14c0,0,7.34-0.58,7.34-7.66L118.19,46.07L118.19,46.07z M44.05,64.11h35.14c6.11-1.22,6.75-6.8,6.75-6.8 c0.29-1.65,0.13-3,0.13-3c-0.19-1.12-2.31-6.06-6.88-6.49c-2.74-0.27-27.11-2.21-27.11-2.21c0.48,2.45,1.57,3.69,2.31,4.39 c1.7,1.62,4.39,2.1,4.39,2.1c0.64,0.05,18.79,1.57,18.79,1.57c0.58,0.03,1.67,0.19,1.65,1.62c0,0.19-0.16,1.44-1.54,1.44H51.39 V45.56l-7.31-0.53C44.05,45.03,44.05,64.11,44.05,64.11z M118.24,64.17h26.9c6.75-0.4,7.71-6.8,7.71-6.8 c0.24-1.67,0.05-3.06,0.05-3.06c-0.19-1.52-2.34-6.09-6.94-6.54c-2.71-0.27-27.25-1.7-27.25-1.7c0.72,2.53,1.7,3.3,2.45,3.99 c1.7,1.65,4.23,2.02,4.23,2.02c0.64,0.05,18.98,1.59,18.98,1.59c0.58,0.03,1.78,0.08,1.78,1.52c0,0.43-0.21,0.88-0.48,1.12 c0,0-0.64,0.35-1.25,0.35h-26.1L118.24,64.17z"></path> </svg> 