<?xml version="1.0" encoding="UTF-8"?> <svg xmlns="http://www.w3.org/2000/svg" xmlns:xlink="http://www.w3.org/1999/xlink" version="1.1" id="Layer_1" x="0px" y="0px" viewBox="0 0 180 100" style="enable-background:new 0 0 180 100;" xml:space="preserve"> <style type="text/css"> .st0{fill:#1A1A1A;} .st1{fill:#0F0F0F;} </style> <g id="layer1_00000178169625490976987850000016774003898249326770_" transform="translate(-137.8498,-390.54123)"> <g id="g23944" transform="matrix(1.5421564,0,0,1.5421564,148.7686,-598.51789)"> <g id="g13605" transform="matrix(0,2.7249422,2.7249422,0,129.07155,656.47605)"> <path id="path13607" class="st0" d="M4.26-31.41c0-0.64,0.3-1.37,0.89-1.81l0,0l0,0l-0.8,0v-1.52h5.55v1.52H6.75 c-0.57,0-1.17,0.44-1.17,1.26c0,0.63,0.44,1.28,1.17,1.28h3.16v1.52H6.46C5.19-29.16,4.26-30.07,4.26-31.41"></path> </g> <g id="g13609" transform="matrix(0,2.7249422,2.7249422,0,247.76404,657.32296)"> <path id="path13611" class="st0" d="M4.04-61.88l3.78-1.38l-3.78-1.38v-1.74l5.55,2.28v1.67l-5.55,2.28V-61.88z"></path> </g> <g id="g13613" transform="matrix(0,2.7249422,2.7249422,0,57.56743,672.48808)"> <path id="path13615" class="st0" d="M0.15-13.06C-0.2-12.8-0.4-12.38-0.4-11.88c0,0.55,0.31,0.97,0.78,1.18l1.1-2.66 C0.91-13.44,0.47-13.29,0.15-13.06 M2.32-10.13c0.47-0.64,0.59-1.01,0.59-1.59c0-0.53-0.16-0.94-0.45-1.23l-1.62,3.9 C0.24-9.14-0.3-9.37-0.71-9.72c-0.59-0.51-0.91-1.27-0.91-2.19c0-1.68,1.24-2.94,2.87-2.94c1.68,0,2.87,1.27,2.87,3.11 c0,1.03-0.49,2.09-1.06,2.58L2.32-10.13z"></path> </g> <g id="g13617" transform="matrix(0,2.7249422,2.7249422,0,39.971116,694.96858)"> <path id="path13619" class="st0" d="M-5.62-8.54V-12h-5.81v-1.55h7.21v5.01H-5.62z"></path> </g> <g id="g13621" transform="matrix(0,2.7249422,2.7249422,0,288.37412,668.31919)"> <path id="path13623" class="st0" d="M1.22-72.3c0-0.85,0.65-1.47,1.56-1.47c0.88,0,1.56,0.65,1.56,1.49 c0,0.85-0.66,1.47-1.56,1.47C1.91-70.81,1.22-71.47,1.22-72.3 M5.65-72.3c0-1.67-1.24-2.97-2.87-2.97 c-1.61,0-2.87,1.32-2.87,2.99c0,1.67,1.24,2.97,2.87,2.97C4.39-69.31,5.65-70.63,5.65-72.3"></path> </g> <g id="g13625" transform="matrix(0,2.7249422,2.7249422,0,181.94605,668.31919)"> <path id="path13627" class="st0" d="M1.22-44.98c0-0.85,0.65-1.47,1.56-1.47c0.88,0,1.56,0.65,1.56,1.49 c0,0.85-0.66,1.47-1.56,1.47C1.91-43.49,1.22-44.15,1.22-44.98 M5.65-44.98c0-1.67-1.24-2.97-2.87-2.97 c-1.61,0-2.87,1.31-2.87,2.99c0,1.67,1.24,2.97,2.87,2.97C4.39-41.99,5.65-43.31,5.65-44.98"></path> </g> </g> </g> </svg> 