<?xml version="1.0" encoding="UTF-8"?> <svg xmlns="http://www.w3.org/2000/svg" xmlns:xlink="http://www.w3.org/1999/xlink" version="1.1" id="Layer_1" x="0px" y="0px" viewBox="0 0 180 100" style="enable-background:new 0 0 180 100;" xml:space="preserve"> <style type="text/css"> .st0{fill:#1A1A1A;} .st1{fill:#0F0F0F;} </style> <g id="layer1_00000090276733293007602310000000110404237571681436_" transform="translate(647.96607,-300.05509)"> <path id="path3256" class="st1" d="M-518.69,338.28v2.95h2.88c1.26,0,2.08,0.79,2.55,1.31c0.38,0.42,8.67,9.82,8.86,10.07 s0.2,0.25,0.2,0.41v4.66c0,0.21-0.02,0.43-0.06,0.64c-0.12,0.27-0.35,0.48-0.64,0.57c-0.27,0.03-0.55,0.05-0.82,0.05l-2.88,0v2.95 h16.16v-2.95h-3.04c-0.27,0-0.54-0.02-0.81-0.05c-0.29-0.09-0.52-0.29-0.64-0.57c-0.04-0.21-0.06-0.42-0.07-0.64V353 c-0.02-0.15,0.02-0.31,0.11-0.43l8.97-10.23c0.82-0.92,1.25-1.12,2.33-1.12h2.97v-2.95h-13.32v2.94h2.01 c0.31-0.02,0.58,0.22,0.6,0.53c0.01,0.13-0.03,0.27-0.11,0.38c-0.04,0.06-5.58,6.57-5.65,6.63c-0.07,0.06-0.11,0.05-0.17-0.02 c-0.05-0.07-5.52-6.61-5.52-6.61c-0.39-0.47-0.08-0.9,0.37-0.9h1.96v-2.94L-518.69,338.28z"></path> <path id="path3254" class="st1" d="M-558.33,338.28v2.95h2.58c1.86,0,1.99,1.04,1.99,1.94v13.8c0,0.83,0.05,1.96-1.14,1.96h-3.18 v2.94h13.59v-2.94h-3.32c-1.32,0-1.38-0.61-1.4-1.89v-11.82l18.67,16.66h4.75l-0.25-18.81c0.02-1.37,0.11-1.83,1.53-1.83h2.97 v-2.94h-13.86v2.94h3.04c1.4,0,1.63,0.54,1.65,1.83l0.17,9.84l-16.2-14.62L-558.33,338.28z"></path> <path id="path3252" class="st1" d="M-619.53,336.79c-2.92,0-6.24,0.55-9.04,1.81c-2.62,1.17-4.75,3.05-4.75,6.16 c0,1.63,0.62,3.2,1.73,4.39c0.76,0.7,1.98,1.89,5.17,2.59c1.43,0.3,4.47,0.79,7.51,1.11c3.04,0.32,5.98,0.6,7.18,0.93 c0.96,0.24,2.57,0.58,2.57,2.38s-1.7,2.35-1.99,2.47c-0.3,0.12-2.33,1.05-5.99,1.05c-2.42-0.07-4.83-0.48-7.13-1.23 c-1.37-0.49-2.8-1.13-4.13-2.76c-0.54-0.77-0.84-1.68-0.86-2.62h-3.32v9.28h3.68v-1.26c0-0.29,0.23-0.53,0.52-0.53 c0.1,0,0.19,0.03,0.27,0.08c1.74,0.76,3.54,1.34,5.39,1.74c1.94,0.4,3.19,0.7,5.59,0.7c2.54,0.05,5.07-0.31,7.49-1.06 c1.61-0.44,3.12-1.19,4.45-2.2c1.52-1.16,2.4-2.97,2.38-4.89c0.01-1.79-0.68-3.52-1.93-4.8c-0.69-0.67-1.5-1.22-2.38-1.62 c-0.94-0.43-1.92-0.77-2.93-1.02c-1.91-0.47-6.2-1.05-8.26-1.26c-2.15-0.22-5.89-0.53-7.38-0.99c-0.45-0.14-1.37-0.58-1.37-1.65 c0-0.76,0.42-1.41,1.25-1.93c1.32-0.83,3.99-1.34,6.78-1.34c2.7-0.03,5.37,0.49,7.85,1.53c0.67,0.29,1.3,0.67,1.87,1.12 c0.93,0.8,1.58,1.88,1.84,3.08h2.98v-8.08h-3.32v0.94c0,0.3-0.3,0.7-0.9,0.37C-610.18,338.5-614.38,336.81-619.53,336.79 L-619.53,336.79z"></path> <path id="path3237" class="st1" d="M-579.63,336.79c-5.22,0-10.77,1.81-13.9,4.66c-2.42,2.2-3.79,5.32-3.78,8.59 c-0.04,3.28,1.34,6.42,3.78,8.62c3.38,3.04,8.44,4.66,13.9,4.66c5.47,0,10.65-1.61,13.94-4.66c2.37-2.24,3.71-5.36,3.73-8.62 c0.03-3.26-1.32-6.38-3.73-8.58C-569.22,338.25-573.85,336.79-579.63,336.79L-579.63,336.79z M-579.63,340.24 c2.86,0,5.61,1.03,7.46,2.85c1.79,1.77,2.73,4.26,2.73,6.93c0,2.8-0.85,5.06-2.73,6.93c-1.88,1.87-4.57,2.87-7.46,2.87 c-2.88,0-5.62-1.02-7.48-2.87c-1.79-1.86-2.77-4.35-2.71-6.93c0-2.66,0.93-5.16,2.71-6.93 C-585.25,341.26-582.49,340.24-579.63,340.24z"></path> </g> </svg> 