<?xml version="1.0" encoding="UTF-8"?> <svg xmlns="http://www.w3.org/2000/svg" xmlns:xlink="http://www.w3.org/1999/xlink" version="1.1" id="Layer_1" x="0px" y="0px" viewBox="0 0 180 100" style="enable-background:new 0 0 180 100;" xml:space="preserve"> <style type="text/css"> .st0{fill:#1A1A1A;} .st1{fill:#0F0F0F;} </style> <g transform="matrix(1.67785 0 0 1.67785 28.3221 160.126)"> <path class="st0" d="M-6.81-62.54c0.14,0.35,0.09,0.79,0.03,1.06c-0.12,0.48-0.44,0.97-1.4,0.97c-0.9,0-1.44-0.52-1.44-1.3v-1.39 h-3.85v1.11c0,3.2,2.52,4.17,5.22,4.17c2.6,0,4.73-0.88,5.07-3.28c0.18-1.24,0.05-2.05-0.01-2.35c-0.61-3.01-6.06-3.9-6.46-5.59 c-0.06-0.25-0.06-0.51-0.01-0.76c0.1-0.46,0.41-0.96,1.31-0.96c0.84,0,1.33,0.52,1.33,1.3v0.89h3.58v-1.01 c0-3.13-2.81-3.62-4.84-3.62c-2.56,0-4.64,0.85-5.02,3.19c-0.1,0.64-0.12,1.21,0.03,1.94C-12.65-65.25-7.55-64.4-6.81-62.54"></path> <path class="st0" d="M1.9-72.85l-2.66,14.36h3.88l1.97-13.03h0.08l1.91,13.03h3.86L8.29-72.86L1.9-72.85z M23.59-72.85l-1.77,10.98 h-0.08l-1.77-10.98h-5.86L13.8-58.49h3.59l0.09-12.91h0.08l2.4,12.91h3.64L26-71.4h0.08l0.09,12.91h3.59l-0.32-14.36L23.59-72.85z"></path> <path class="st0" d="M39.88-62.57c0.14,0.35,0.09,0.79,0.03,1.06c-0.12,0.48-0.44,0.97-1.4,0.97c-0.9,0-1.44-0.52-1.44-1.3v-1.39 h-3.85v1.11c0,3.2,2.52,4.17,5.22,4.17c2.6,0,4.73-0.88,5.07-3.28c0.18-1.24,0.05-2.05-0.01-2.35c-0.61-3.01-6.06-3.9-6.46-5.59 c-0.06-0.25-0.06-0.51-0.01-0.76c0.1-0.46,0.41-0.96,1.31-0.96c0.84,0,1.33,0.52,1.33,1.3v0.89h3.58v-1.01 c0-3.13-2.81-3.62-4.84-3.62c-2.56,0-4.64,0.85-5.02,3.19c-0.1,0.64-0.12,1.21,0.03,1.94C34.04-65.28,39.14-64.43,39.88-62.57"></path> <path class="st0" d="M51.93-60.64c1,0,1.3-0.69,1.38-1.04c0.03-0.16,0.03-0.36,0.03-0.55v-10.62h3.63v10.29 c0,0.31-0.01,0.63-0.03,0.94c-0.25,2.68-2.37,3.55-5.01,3.55c-2.64,0-4.76-0.87-5.01-3.55c-0.01-0.14-0.04-0.68-0.03-0.94v-10.3 h3.63v10.62c0,0.19,0,0.4,0.03,0.55C50.62-61.33,50.93-60.64,51.93-60.64 M69.49-72.85l0.2,11.27h-0.08l-3.3-11.27h-5.33v14.21 h3.53l-0.2-11.66h0.08l3.54,11.66h5.11v-14.21H69.49z M81.88-60.79c1.04,0,1.4-0.66,1.47-1.05c0.03-0.16,0.03-0.36,0.03-0.54v-2.09 h-1.47v-2.09H87v3.85c0,0.27-0.01,0.47-0.05,0.94c-0.24,2.62-2.51,3.55-5.05,3.55s-4.81-0.93-5.05-3.55 c-0.04-0.48-0.05-0.67-0.05-0.94v-6.04c0-0.26,0.03-0.71,0.06-0.94c0.32-2.69,2.5-3.55,5.04-3.55s4.78,0.86,5.04,3.55 c0.05,0.46,0.03,0.94,0.03,0.94v0.48h-3.62v-0.81c0,0,0-0.34-0.04-0.55c-0.07-0.32-0.34-1.05-1.44-1.05 c-1.05,0-1.35,0.69-1.43,1.05c-0.04,0.19-0.06,0.45-0.06,0.68v6.56c0,0.18,0.01,0.38,0.03,0.55 C80.48-61.45,80.85-60.79,81.88-60.79"></path> </g> </svg> 