<?xml version="1.0" encoding="UTF-8"?> <svg xmlns="http://www.w3.org/2000/svg" xmlns:xlink="http://www.w3.org/1999/xlink" version="1.1" id="Layer_1" x="0px" y="0px" viewBox="0 0 180 100" style="enable-background:new 0 0 180 100;" xml:space="preserve"> <style type="text/css"> .st0{fill:#1A1A1A;} .st1{fill:#0F0F0F;} </style> <path id="path2" class="st0" d="M159.49,34.67c-0.49-0.66-0.99-1.15-3.46-1.32c-0.66,0-2.64-0.16-6.1-0.16 c-9.07,0-15.33,2.8-18.47,8.24c0.82-5.44-4.45-8.24-15.99-8.24c-13.52,0-22.1,5.44-25.56,16.49c-1.32,4.12-1.32,7.42-0.33,10.06 h-3.3c-2.47,0.16-5.77,0.33-7.91,0.33c-4.95,0-8.08-0.82-9.23-2.47c-0.99-1.48-0.99-4.29,0.33-8.41c2.14-6.76,7.26-9.73,15.5-9.73 c4.29,0,8.41,0.49,8.41,0.49c0.49,0,0.82-0.66,0.82-1.15l-0.16-0.49l-0.33-2.31c-0.16-1.48-1.32-2.31-3.3-2.64 c-1.81-0.16-3.3-0.16-5.28-0.16h-0.16c-10.72,0-18.3,3.63-22.43,10.55c1.48-7.09-3.46-10.55-14.84-10.55 c-6.43,0-11.05,0.16-13.69,0.49c-2.14,0.33-3.46,1.15-3.96,2.64l-0.99,2.97c-0.16,0.49,0.16,0.82,0.82,0.82 c0.49,0,2.47-0.33,5.77-0.49c4.45-0.33,7.58-0.49,9.73-0.49c6.27,0,9.07,1.65,8.08,4.78c-0.16,0.66-0.66,1.15-1.48,1.32 c-5.94,0.99-10.72,1.65-14.18,2.14c-9.89,1.32-15.66,4.29-17.15,9.23c-2.14,6.76,3.13,10.06,15.83,10.06 c6.27,0,11.71-0.33,15.99-1.15c2.47-0.49,3.79-0.99,4.29-2.64l2.31-7.58c-0.16,7.58,4.95,11.38,15.83,11.38 c4.62,0,9.07-0.16,11.21-0.49c2.14-0.33,3.3-0.82,3.79-2.47l0.49-2.31c2.31,3.63,7.42,5.44,15.17,5.44c8.24,0,13.03-0.16,14.35-0.66 c1.15-0.33,1.81-0.99,2.14-1.81c0-0.16,0-0.33,0.16-0.49l0.99-3.13c0.16-0.49-0.16-0.82-0.82-0.82l-5.28,0.33 c-3.46,0.16-6.27,0.33-8.24,0.33c-3.79,0-6.27-0.33-7.75-0.82c-2.14-0.82-3.13-2.31-2.97-4.78l16.65-2.14 c7.42-0.99,12.53-3.3,15.01-6.93l-5.77,19.29c-0.16,0.33,0,0.66,0.16,0.82c0.16,0.16,0.49,0.33,1.15,0.33h6.93 c1.15,0,1.65-0.66,1.81-1.15l6.1-21.27c0.82-2.8,3.3-4.12,7.91-4.12c4.12,0,7.09,0,9.07,0.16h0.16c0.33,0,0.99-0.16,1.48-0.99 l0.99-2.97C159.82,35.49,159.82,35,159.49,34.67L159.49,34.67z M48.35,60.06c-2.14,0.33-5.28,0.49-9.23,0.49 c-7.09,0-10.06-1.48-9.23-4.29c0.66-1.98,2.47-3.3,5.44-3.63l15.99-2.14L48.35,60.06z M122.06,42.91c-0.66,2.14-3.79,3.63-9.4,4.45 L99.3,49.18l0.33-1.15c1.15-3.63,2.64-5.94,4.62-7.26c1.98-1.32,5.28-1.98,9.89-1.98C120.24,38.95,122.88,40.27,122.06,42.91 L122.06,42.91z"></path> </svg> 