<?xml version="1.0" encoding="UTF-8"?> <svg xmlns="http://www.w3.org/2000/svg" xmlns:xlink="http://www.w3.org/1999/xlink" version="1.1" id="Layer_1" x="0px" y="0px" viewBox="0 0 180 100" style="enable-background:new 0 0 180 100;" xml:space="preserve"> <style type="text/css"> .st0{fill:#1A1A1A;} .st1{fill:#0F0F0F;} </style> <path d="M115.52,34.85c-0.39,0.3-7.25,4.17-7.25,12.76c0,9.94,8.73,13.46,8.99,13.54c-0.04,0.21-1.39,4.82-4.6,9.5 c-2.87,4.13-5.86,8.25-10.42,8.25c-4.55,0-5.73-2.65-10.99-2.65c-5.12,0-6.95,2.73-11.11,2.73c-4.17,0-7.07-3.82-10.42-8.51 c-3.87-5.51-7-14.06-7-22.18c0-13.02,8.47-19.93,16.8-19.93c4.43,0,8.12,2.91,10.9,2.91c2.65,0,6.77-3.08,11.81-3.08 C104.15,28.2,111.01,28.38,115.52,34.85L115.52,34.85z M99.85,22.69c2.08-2.47,3.56-5.9,3.56-9.33c0-0.48-0.04-0.96-0.13-1.35 c-3.39,0.13-7.42,2.26-9.85,5.08c-1.91,2.17-3.69,5.6-3.69,9.08c0,0.52,0.09,1.04,0.13,1.21c0.21,0.04,0.56,0.09,0.91,0.09 C93.81,27.47,97.64,25.43,99.85,22.69L99.85,22.69z"></path> </svg> 