<svg xmlns="http://www.w3.org/2000/svg" xmlns:xlink="http://www.w3.org/1999/xlink" id="Layer_1" x="0px" y="0px" viewBox="0 0 557.4 204" style="enable-background:new 0 0 557.4 204;" xml:space="preserve"><style type="text/css">.st0{fill:#FFF}</style><g><path class="st0" d="M410.76,89.31c-10.45,0-18.65,8.73-18.65,18.91c0,10.18,7.94,19.18,18.65,19.18s18.25-8.33,18.25-19.18&#10;C429.01,97.37,421.34,89.31,410.76,89.31z"></path><path class="st0" d="M452.09,0c-56.33,0-102,45.67-102,102c0,3.73,0.21,7.41,0.6,11.03c10.77,0.32,19.4,9.13,19.4,19.97&#10;c0,6.72-3.32,12.64-8.4,16.27c17.05,32.53,51.13,54.73,90.4,54.73c56.33,0,102-45.67,102-102C554.09,45.67,508.43,0,452.09,0z&#10;M444.75,133.87c0,4.76-4.36,8.86-8.86,8.86c-4.36,0-7.8-3.97-7.8-7.01c-3.04,2.91-10.32,7.01-18.65,7.01&#10;c-18.51,0-33.46-15.34-33.46-34.52s15.08-34.25,33.46-34.25c8.33,0,15.61,4.1,18.65,7.01c0-3.04,3.44-7.01,7.8-7.01&#10;c4.5,0,8.86,4.1,8.86,8.86V133.87z M409.33,20.5c0-2.21,1.79-4,4-4s4,1.79,4,4c0,19.3,15.7,35,35,35s35-15.7,35-35&#10;c0-2.21,1.79-4,4-4s4,1.79,4,4c0,23.71-19.29,43-43,43S409.33,44.21,409.33,20.5z M510.21,141.41h-37.96&#10;c-6.48,0-10.98-4.23-10.98-9.39c0-2.38,0.66-5.55,3.7-8.86l29.62-32.53h-24.47c-4.63,0-8.2-2.78-8.2-7.54c0-4.63,3.57-7.8,8.2-7.8&#10;h36.1c7.01,0,10.84,4.36,10.84,8.99c0,2.78-0.79,5.69-3.44,8.6l-30.15,33.19h26.71c4.63,0,8.33,3.04,8.33,7.67&#10;C518.55,138.24,514.84,141.41,510.21,141.41z"></path><path class="st0" d="M19.71,94.2c0-3.17,3.44-6.22,10.71-6.22c4.89,0,8.73,1.45,11.64,3.17c1.85,1.06,4.5,3.57,7.41,3.57&#10;c4.89,0,7.27-3.83,7.27-7.41c0-5.95-9.52-13.22-26.19-13.22c-15.74,0-26.58,9.26-26.58,20.1c0,25.39,38.35,17.99,38.35,28.17&#10;c0,3.7-4.76,6.22-11.64,6.22c-11.24,0-13.89-7.14-19.71-7.14c-4.23,0-7.67,3.17-7.67,7.8c0,6.22,11.24,13.49,27.24,13.49&#10;c14.81,0,28.3-7.93,28.3-21.03C58.85,97.64,19.71,104.51,19.71,94.2z"></path><path class="st0" d="M106.06,90.89c4.23,0,7.8-3.44,7.8-7.8c0-4.5-3.57-7.8-7.8-7.8h-9.39v-9.26c0-4.63-3.97-8.33-8.33-8.33&#10;c-4.5,0-8.46,3.7-8.46,8.33v9.26h-4.63c-4.36,0-7.8,3.7-7.8,7.8c0,4.36,3.44,7.8,7.8,7.8h4.63v32.67&#10;c0,10.45,7.94,17.85,18.25,17.85h6.35c4.36,0,7.8-3.44,7.8-7.8s-3.44-7.8-7.8-7.8h-5.29c-1.32,0-2.51-1.32-2.51-2.51v-32.4H106.06z&#10;"></path><path class="st0" d="M156.85,73.96c-19.44,0-34.78,15.08-34.78,34.25s15.21,34.52,34.78,34.52c19.31,0,34.78-15.47,34.78-34.52&#10;C191.63,89.17,176.02,73.96,156.85,73.96z M156.85,127.39c-10.71,0-18.65-8.99-18.65-19.18c0-10.18,8.2-18.78,18.65-18.78&#10;s18.51,8.6,18.51,18.78C175.36,118.4,167.43,127.39,156.85,127.39z"></path><path class="st0" d="M236.99,73.96c-16.66,0-30.15,13.62-30.15,30.02v30.29c0,4.5,3.84,8.46,8.46,8.46c4.63,0,8.46-3.97,8.46-8.46&#10;v-32c0-7.14,5.55-12.83,13.09-12.83c7.01,0,7.67,4.1,13.09,4.1c4.23,0,7.67-3.17,7.67-7.54C257.62,79.92,248.49,73.96,236.99,73.96&#10;z"></path><path class="st0" d="M295.44,74.1c-18.51,0-34.25,15.08-34.25,34.12c0,19.04,15.08,34.52,34.78,34.52&#10;c12.56,0,19.04-3.44,21.42-4.89c2.51-1.72,4.5-3.97,4.5-7.54c0-4.23-3.44-7.41-7.8-7.41c-2.25,0-4.23,0.79-6.08,1.98&#10;c-1.98,1.32-5.82,2.78-12.04,2.78c-7.8,0-15.87-5.82-17.19-12.96c0,0,39.41,0,39.54,0c5.69,0,9.92-3.84,9.92-9.52&#10;C328.24,89.7,314.22,74.1,295.44,74.1z M278.78,102.13c0.93-6.35,8.07-13.22,16.66-13.22c9.26,0,16.27,7.14,16.79,13.22H278.78z"></path><path class="st0" d="M351.78,122.1c-5.69,0-10.32,4.63-10.32,10.31c0,5.69,4.63,10.32,10.32,10.32s10.32-4.63,10.32-10.32&#10;C362.1,126.73,357.47,122.1,351.78,122.1z"></path></g></svg>